# xmcd CD database file
#
# Track frame offsets:
#	150
#	18012
#	37010
#	54587
#	66515
#	83315
#	96222
#	101170
#	114447
#	133130
#	152485
#	163500
#	181672
#	206365
#
# Disc length: 2999 seconds
#
# Revision: 0
# Processed by: cddbd v1.5PL3 Copyright (c) Steve Scherf et al.
# Submitted via: CDex 1.50
#
DISCID=ab0bb50e
DTITLE=Pogo Pops - Crash
DYEAR=1994
DGENRE=Rock
TTITLE0=Miniature Sun
TTITLE1=Kill The Butterflies
TTITLE2=Crash
TTITLE3=Here Comes My Girl
TTITLE4=Jeniffer Peach
TTITLE5=Goddess
TTITLE6=Hey-Hey Rain
TTITLE7=Giant
TTITLE8=This Time
TTITLE9=Just Like You
TTITLE10=Look Like Garbo (Another Breakdown)
TTITLE11=Flame
TTITLE12=Veronica Says
TTITLE13=Freedom Sea
EXTD=YEAR: 1994
EXTT0=
EXTT1=
EXTT2=
EXTT3=
EXTT4=
EXTT5=
EXTT6=
EXTT7=
EXTT8=
EXTT9=
EXTT10=
EXTT11=
EXTT12=
EXTT13=
PLAYORDER=
